<svg width="20" height="21" viewBox="0 0 20 21" fill="none" xmlns="http://www.w3.org/2000/svg">
<path fill-rule="evenodd" clip-rule="evenodd" d="M10 0.134888C4.48 0.134888 0 4.61489 0 10.1349C0 15.6549 4.48 20.1349 10 20.1349C15.51 20.1349 20 15.6549 20 10.1349C20 4.61489 15.51 0.134888 10 0.134888ZM16.605 4.74489C17.8357 6.24419 18.5167 8.11925 18.535 10.0589C18.254 10.0049 15.434 9.42989 12.592 9.78789C12.527 9.64689 12.472 9.49489 12.408 9.34289C12.231 8.92594 12.043 8.51379 11.844 8.10689C14.989 6.82689 16.421 4.98289 16.605 4.74489ZM10 1.60989C12.17 1.60989 14.154 2.42289 15.662 3.75789C15.51 3.97389 14.219 5.69889 11.182 6.83789C9.783 4.26789 8.232 2.16289 7.993 1.83789C8.65086 1.6841 9.32441 1.60759 10 1.60989ZM6.367 2.41289C7.51144 3.9992 8.56867 5.64664 9.534 7.34789C5.542 8.41089 2.017 8.38789 1.638 8.38789C1.91283 7.09501 2.48261 5.8831 3.3029 4.84668C4.12319 3.81026 5.17182 2.97734 6.367 2.41289ZM1.453 10.1449V9.88489C1.823 9.89489 5.965 9.94989 10.228 8.66989C10.478 9.14689 10.705 9.63489 10.922 10.1229C10.813 10.1559 10.694 10.1879 10.586 10.2209C6.182 11.6409 3.839 15.5239 3.644 15.8499C2.23384 14.2843 1.45264 12.2519 1.453 10.1449ZM10 18.6819C8.10143 18.6851 6.25667 18.0513 4.761 16.8819C4.913 16.5669 6.649 13.2259 11.464 11.5449C11.486 11.5349 11.497 11.5349 11.518 11.5229C12.3303 13.6183 12.9407 15.7865 13.341 17.9979C12.2858 18.4519 11.1487 18.6847 10 18.6819ZM14.761 17.2169C14.675 16.6969 14.219 14.2019 13.102 11.1329C15.781 10.7099 18.124 11.4039 18.416 11.5019C18.2336 12.655 17.8148 13.7579 17.1858 14.7414C16.5568 15.7249 15.7313 16.5677 14.761 17.2169Z" fill="black" fill-opacity="0.65"/>
</svg>
